<svg xmlns="http://www.w3.org/2000/svg" xmlns:xlink="http://www.w3.org/1999/xlink" width="100" zoomAndPan="magnify" viewBox="0 0 75 74.999997" height="100" preserveAspectRatio="xMidYMid meet" version="1.0"><defs><clipPath id="b383e6993f"><path d="M 19.367188 1.238281 L 55.367188 1.238281 L 55.367188 73.988281 L 19.367188 73.988281 Z M 19.367188 1.238281 " clip-rule="nonzero"/></clipPath></defs><g clip-path="url(#b383e6993f)"><path fill="#ffffff" d="M 37.394531 67.023438 C 38.667969 67.023438 39.695312 68.0625 39.695312 69.34375 C 39.695312 70.628906 38.667969 71.660156 37.394531 71.660156 C 36.121094 71.660156 35.097656 70.628906 35.097656 69.34375 C 35.097656 68.0625 36.121094 67.023438 37.394531 67.023438 Z M 52.714844 8.972656 L 22.078125 8.972656 L 22.078125 64.699219 L 52.714844 64.699219 Z M 40.457031 5.105469 L 34.332031 5.105469 C 33.910156 5.105469 33.566406 5.453125 33.566406 5.878906 C 33.566406 6.308594 33.910156 6.65625 34.332031 6.65625 L 40.457031 6.65625 C 40.882812 6.65625 41.222656 6.308594 41.222656 5.878906 C 41.222656 5.453125 40.882812 5.105469 40.457031 5.105469 Z M 37.394531 2.011719 C 36.972656 2.011719 36.628906 2.355469 36.628906 2.785156 C 36.628906 3.214844 36.972656 3.5625 37.394531 3.5625 C 37.816406 3.5625 38.160156 3.214844 38.160156 2.785156 C 38.160156 2.355469 37.816406 2.011719 37.394531 2.011719 Z M 31.265625 5.105469 C 30.84375 5.105469 30.503906 5.453125 30.503906 5.878906 C 30.503906 6.308594 30.84375 6.65625 31.265625 6.65625 C 31.691406 6.65625 32.03125 6.308594 32.03125 5.878906 C 32.03125 5.453125 31.691406 5.105469 31.265625 5.105469 Z M 37.394531 72.4375 C 39.089844 72.4375 40.457031 71.054688 40.457031 69.34375 C 40.457031 67.632812 39.089844 66.25 37.394531 66.25 C 35.699219 66.25 34.332031 67.632812 34.332031 69.34375 C 34.332031 71.054688 35.699219 72.4375 37.394531 72.4375 Z M 50.414062 73.988281 L 24.375 73.988281 C 21.835938 73.988281 19.777344 71.90625 19.777344 69.34375 L 19.777344 5.878906 C 19.777344 3.316406 21.835938 1.238281 24.375 1.238281 L 50.414062 1.238281 C 52.953125 1.238281 55.011719 3.316406 55.011719 5.878906 L 55.011719 69.34375 C 55.011719 71.90625 52.953125 73.988281 50.414062 73.988281 " fill-opacity="1" fill-rule="nonzero"/></g></svg>