<svg xmlns="http://www.w3.org/2000/svg" xmlns:xlink="http://www.w3.org/1999/xlink" width="100" zoomAndPan="magnify" viewBox="0 0 75 74.999997" height="100" preserveAspectRatio="xMidYMid meet" version="1.0"><defs><clipPath id="ec8352377a"><path d="M 3.0625 3.0625 L 72.0625 3.0625 L 72.0625 72.0625 L 3.0625 72.0625 Z M 3.0625 3.0625 " clip-rule="nonzero"/></clipPath></defs><g clip-path="url(#ec8352377a)"><path fill="#ffffff" d="M 37.546875 9.285156 C 46.753906 9.285156 47.84375 9.3125 51.488281 9.480469 C 54.84375 9.632812 56.671875 10.191406 57.898438 10.675781 C 59.5 11.292969 60.648438 12.050781 61.859375 13.261719 C 63.066406 14.46875 63.808594 15.617188 64.441406 17.222656 C 64.910156 18.429688 65.472656 20.261719 65.636719 23.632812 C 65.804688 27.273438 65.835938 28.363281 65.835938 37.570312 C 65.835938 46.777344 65.804688 47.867188 65.636719 51.507812 C 65.488281 54.867188 64.925781 56.695312 64.441406 57.917969 C 63.824219 59.523438 63.066406 60.671875 61.859375 61.878906 C 60.648438 63.089844 59.5 63.832031 57.898438 64.464844 C 56.6875 64.933594 54.859375 65.492188 51.488281 65.660156 C 47.84375 65.828125 46.753906 65.855469 37.546875 65.855469 C 28.339844 65.855469 27.253906 65.828125 23.609375 65.660156 C 20.253906 65.507812 18.421875 64.949219 17.199219 64.464844 C 15.597656 63.847656 14.445312 63.089844 13.238281 61.878906 C 12.027344 60.671875 11.289062 59.523438 10.652344 57.917969 C 10.183594 56.710938 9.625 54.878906 9.457031 51.507812 C 9.292969 47.867188 9.261719 46.777344 9.261719 37.570312 C 9.261719 28.363281 9.292969 27.273438 9.457031 23.632812 C 9.609375 20.273438 10.167969 18.445312 10.652344 17.222656 C 11.273438 15.617188 12.027344 14.46875 13.238281 13.261719 C 14.445312 12.050781 15.597656 11.308594 17.199219 10.675781 C 18.40625 10.207031 20.238281 9.648438 23.609375 9.480469 C 27.253906 9.3125 28.339844 9.285156 37.546875 9.285156 M 37.546875 3.070312 C 28.175781 3.070312 27.011719 3.117188 23.320312 3.28125 C 19.648438 3.449219 17.136719 4.039062 14.945312 4.882812 C 12.679688 5.761719 10.757812 6.941406 8.839844 8.859375 C 6.933594 10.78125 5.753906 12.699219 4.878906 14.96875 C 4.03125 17.160156 3.441406 19.671875 3.273438 23.34375 C 3.109375 27.019531 3.0625 28.195312 3.0625 37.554688 C 3.0625 46.929688 3.109375 48.09375 3.273438 51.78125 C 3.441406 55.457031 4.03125 57.964844 4.878906 60.15625 C 5.753906 62.425781 6.933594 64.34375 8.851562 66.265625 C 10.773438 68.183594 12.691406 69.363281 14.960938 70.242188 C 17.152344 71.085938 19.664062 71.675781 23.335938 71.84375 C 27.011719 72.011719 28.191406 72.054688 37.5625 72.054688 C 46.9375 72.054688 48.101562 72.011719 51.789062 71.84375 C 55.464844 71.675781 57.972656 71.085938 60.164062 70.242188 C 62.433594 69.363281 64.351562 68.183594 66.273438 66.265625 C 68.191406 64.34375 69.371094 62.425781 70.25 60.15625 C 71.09375 57.964844 71.683594 55.457031 71.851562 51.78125 C 72.015625 48.109375 72.0625 46.929688 72.0625 37.554688 C 72.0625 28.183594 72.015625 27.019531 71.851562 23.328125 C 71.683594 19.65625 71.09375 17.144531 70.25 14.953125 C 69.371094 12.6875 68.191406 10.765625 66.273438 8.84375 C 64.351562 6.925781 62.433594 5.746094 60.164062 4.871094 C 57.972656 4.023438 55.464844 3.433594 51.789062 3.265625 C 48.101562 3.117188 46.921875 3.070312 37.546875 3.070312 " fill-opacity="1" fill-rule="nonzero"/></g><path fill="#ffffff" d="M 37.546875 19.851562 C 27.765625 19.851562 19.84375 27.773438 19.84375 37.554688 C 19.84375 47.335938 27.78125 55.273438 37.5625 55.273438 C 47.34375 55.273438 55.28125 47.351562 55.28125 37.554688 C 55.265625 27.773438 47.328125 19.851562 37.546875 19.851562 M 37.546875 49.058594 C 31.199219 49.058594 26.058594 43.921875 26.058594 37.570312 C 26.058594 31.21875 31.199219 26.082031 37.546875 26.082031 C 43.898438 26.082031 49.039062 31.21875 49.039062 37.570312 C 49.054688 43.90625 43.898438 49.058594 37.546875 49.058594 " fill-opacity="1" fill-rule="nonzero"/><path fill="#ffffff" d="M 60.105469 19.15625 C 60.105469 21.4375 58.246094 23.296875 55.960938 23.296875 C 53.679688 23.296875 51.820312 21.4375 51.820312 19.15625 C 51.820312 16.875 53.679688 15.015625 55.960938 15.015625 C 58.246094 15.015625 60.105469 16.859375 60.105469 19.15625 " fill-opacity="1" fill-rule="nonzero"/></svg>