<svg xmlns="http://www.w3.org/2000/svg" xmlns:xlink="http://www.w3.org/1999/xlink" width="100" zoomAndPan="magnify" viewBox="0 0 75 74.999997" height="100" preserveAspectRatio="xMidYMid meet" version="1.0"><defs><clipPath id="f255f5bbac"><path d="M 1.238281 1.238281 L 73.988281 1.238281 L 73.988281 73.988281 L 1.238281 73.988281 Z M 1.238281 1.238281 " clip-rule="nonzero"/></clipPath></defs><path fill="#e92267" d="M 47.113281 16.714844 L 28.144531 16.714844 C 21.863281 16.714844 16.746094 21.832031 16.746094 28.113281 L 16.746094 47.082031 C 16.746094 53.363281 21.863281 58.480469 28.144531 58.480469 L 47.113281 58.480469 C 53.394531 58.480469 58.511719 53.363281 58.511719 47.082031 L 58.511719 28.144531 C 58.511719 21.832031 53.394531 16.714844 47.113281 16.714844 Z M 54.925781 47.113281 C 54.925781 51.433594 51.433594 54.925781 47.113281 54.925781 L 28.144531 54.925781 C 23.824219 54.925781 20.300781 51.433594 20.300781 47.113281 L 20.300781 28.144531 C 20.300781 23.824219 23.824219 20.300781 28.144531 20.300781 L 47.113281 20.300781 C 51.433594 20.300781 54.925781 23.792969 54.925781 28.144531 Z M 54.925781 47.113281 " fill-opacity="1" fill-rule="nonzero"/><path fill="#e92267" d="M 51.585938 26.183594 C 51.585938 27.59375 50.453125 28.757812 49.011719 28.757812 C 47.601562 28.757812 46.4375 27.625 46.4375 26.183594 C 46.4375 24.773438 47.574219 23.609375 49.011719 23.609375 C 50.453125 23.640625 51.585938 24.773438 51.585938 26.183594 Z M 51.585938 26.183594 " fill-opacity="1" fill-rule="nonzero"/><path fill="#e92267" d="M 37.613281 26.980469 C 31.761719 26.980469 26.980469 31.761719 26.980469 37.613281 C 26.980469 43.464844 31.761719 48.246094 37.613281 48.246094 C 43.464844 48.246094 48.246094 43.464844 48.246094 37.613281 C 48.246094 31.761719 43.496094 26.980469 37.613281 26.980469 Z M 37.613281 44.660156 C 33.722656 44.660156 30.566406 41.503906 30.566406 37.613281 C 30.566406 33.722656 33.722656 30.566406 37.613281 30.566406 C 41.503906 30.566406 44.660156 33.722656 44.660156 37.613281 C 44.660156 41.503906 41.503906 44.660156 37.613281 44.660156 Z M 37.613281 44.660156 " fill-opacity="1" fill-rule="nonzero"/><g clip-path="url(#f255f5bbac)"><path fill="#e92267" d="M 37.613281 73.988281 C 17.570312 73.988281 1.238281 57.683594 1.238281 37.613281 C 1.238281 17.570312 17.570312 1.238281 37.613281 1.238281 C 57.683594 1.238281 73.988281 17.570312 73.988281 37.613281 C 73.988281 57.683594 57.683594 73.988281 37.613281 73.988281 Z M 37.613281 3.230469 C 18.644531 3.230469 3.230469 18.644531 3.230469 37.613281 C 3.230469 56.582031 18.644531 71.996094 37.613281 71.996094 C 56.582031 71.996094 71.996094 56.582031 71.996094 37.613281 C 71.996094 18.644531 56.582031 3.230469 37.613281 3.230469 Z M 37.613281 3.230469 " fill-opacity="1" fill-rule="nonzero"/></g></svg>