<svg xmlns="http://www.w3.org/2000/svg" xmlns:xlink="http://www.w3.org/1999/xlink" width="100" zoomAndPan="magnify" viewBox="0 0 75 74.999997" height="100" preserveAspectRatio="xMidYMid meet" version="1.0"><defs><clipPath id="a9d75e9113"><path d="M 1.441406 1.441406 L 73.441406 1.441406 L 73.441406 73.441406 L 1.441406 73.441406 Z M 1.441406 1.441406 " clip-rule="nonzero"/></clipPath></defs><g clip-path="url(#a9d75e9113)"><path fill="#e92267" d="M 37.441406 70.78125 C 19.03125 70.78125 4.105469 55.855469 4.105469 37.441406 C 4.105469 19.03125 19.03125 4.105469 37.441406 4.105469 C 55.855469 4.105469 70.78125 19.03125 70.78125 37.441406 C 70.78125 55.855469 55.855469 70.78125 37.441406 70.78125 Z M 37.441406 1.441406 C 17.558594 1.441406 1.441406 17.558594 1.441406 37.441406 C 1.441406 57.324219 17.558594 73.445312 37.441406 73.445312 C 57.324219 73.445312 73.445312 57.324219 73.445312 37.441406 C 73.445312 17.558594 57.324219 1.441406 37.441406 1.441406 " fill-opacity="1" fill-rule="nonzero"/></g><path fill="#e92267" d="M 37.441406 36.734375 C 32.574219 36.734375 28.628906 32.789062 28.628906 27.921875 C 28.628906 23.050781 32.574219 19.105469 37.441406 19.105469 C 42.3125 19.105469 46.257812 23.050781 46.257812 27.921875 C 46.257812 32.789062 42.3125 36.734375 37.441406 36.734375 Z M 37.441406 7.042969 C 25.914062 7.042969 16.566406 16.390625 16.566406 27.921875 C 16.566406 39.449219 37.441406 67.84375 37.441406 67.84375 C 37.441406 67.84375 58.320312 39.449219 58.320312 27.921875 C 58.320312 16.390625 48.972656 7.042969 37.441406 7.042969 " fill-opacity="1" fill-rule="nonzero"/></svg>