<svg xmlns="http://www.w3.org/2000/svg" xmlns:xlink="http://www.w3.org/1999/xlink" width="100" zoomAndPan="magnify" viewBox="0 0 75 74.999997" height="100" preserveAspectRatio="xMidYMid meet" version="1.0"><defs><clipPath id="3e36109f71"><path d="M 1.109375 6 L 69 6 L 69 73.574219 L 1.109375 73.574219 Z M 1.109375 6 " clip-rule="nonzero"/></clipPath><clipPath id="d2bc7672ff"><path d="M 32 1.574219 L 73.859375 1.574219 L 73.859375 43 L 32 43 Z M 32 1.574219 " clip-rule="nonzero"/></clipPath></defs><g clip-path="url(#3e36109f71)"><path fill="#ffffff" d="M 66.550781 55.890625 C 62.855469 54.6875 58.125 53.132812 53.480469 52.011719 C 52.535156 51.753906 50.386719 51.753906 49.4375 53.304688 L 46.515625 57.789062 C 46.257812 58.132812 45.914062 58.304688 45.570312 58.390625 C 44.710938 58.480469 43.765625 58.304688 43.074219 57.703125 C 41.183594 56.496094 33.875 49.773438 29.574219 45.632812 C 25.273438 41.152344 18.738281 33.910156 17.363281 32.015625 C 16.847656 31.324219 16.589844 30.375 16.675781 29.515625 C 16.761719 29.082031 16.933594 28.738281 17.277344 28.566406 L 21.75 25.636719 C 22.78125 24.945312 23.296875 22.53125 23.039062 21.582031 C 22.179688 17.964844 21.0625 13.910156 19.253906 8.566406 C 18.824219 7.445312 17.105469 6.066406 14.355469 7.015625 C 10.65625 8.566406 7.214844 10.808594 4.292969 13.738281 C 3.433594 14.601562 2.660156 15.464844 1.972656 16.410156 C 1.800781 16.582031 1.714844 16.84375 1.714844 17.015625 C 1.109375 27.789062 8.335938 42.273438 20.117188 53.996094 C 31.464844 65.890625 46 73.5625 56.921875 73.5625 C 57.351562 73.5625 57.695312 73.5625 58.125 73.5625 C 58.382812 73.5625 58.554688 73.476562 58.726562 73.304688 C 59.671875 72.53125 60.53125 71.753906 61.390625 70.976562 C 63.714844 68.652344 65.605469 65.976562 67.152344 63.132812 C 67.496094 62.359375 67.839844 61.667969 68.1875 60.890625 C 68.53125 59.683594 69.21875 56.753906 66.550781 55.890625 Z M 15.214844 8.910156 C 15.988281 8.652344 17.019531 8.824219 17.277344 9.34375 C 18.996094 14.601562 20.203125 18.566406 20.976562 22.101562 C 21.148438 22.703125 20.976562 23.566406 20.546875 23.910156 L 19.515625 24.601562 C 16.246094 20.203125 14.269531 15.03125 13.753906 9.601562 C 13.753906 9.601562 14.699219 9.171875 15.214844 8.910156 Z M 66.207031 60.03125 C 66.035156 60.546875 65.777344 60.976562 65.605469 61.410156 C 55.542969 59.773438 51.675781 56.925781 50.558594 55.890625 L 51.332031 54.6875 C 51.761719 54.082031 52.535156 54.082031 53.136719 54.253906 C 57.523438 55.289062 62.253906 56.839844 65.863281 57.960938 C 66.464844 58.132812 66.464844 59.253906 66.207031 60.03125 Z M 66.207031 60.03125 " fill-opacity="1" fill-rule="nonzero"/></g><g clip-path="url(#d2bc7672ff)"><path fill="#ffffff" d="M 33.960938 1.585938 C 33.359375 1.585938 32.929688 2.101562 32.929688 2.617188 C 32.929688 3.136719 33.445312 3.652344 33.960938 3.652344 C 54.855469 3.652344 71.710938 20.636719 71.710938 41.496094 C 71.710938 42.101562 72.226562 42.53125 72.742188 42.53125 C 73.257812 42.53125 73.773438 42.015625 73.773438 41.496094 C 73.859375 19.515625 55.976562 1.671875 33.960938 1.585938 Z M 33.960938 1.585938 " fill-opacity="1" fill-rule="nonzero"/></g><path fill="#ffffff" d="M 52.621094 22.964844 C 57.609375 27.875 60.359375 34.601562 60.359375 41.667969 C 60.359375 42.273438 60.875 42.703125 61.390625 42.703125 C 61.910156 42.703125 62.425781 42.1875 62.425781 41.667969 C 62.425781 25.894531 49.609375 13.050781 33.875 13.050781 C 33.273438 13.050781 32.84375 13.566406 32.84375 14.085938 C 32.84375 14.6875 33.273438 15.117188 33.789062 15.203125 C 33.789062 15.203125 33.875 15.203125 33.875 15.203125 C 40.925781 15.203125 47.632812 17.964844 52.621094 22.964844 Z M 52.621094 22.964844 " fill-opacity="1" fill-rule="nonzero"/><path fill="#ffffff" d="M 33.960938 27.273438 C 41.871094 27.273438 48.320312 33.738281 48.320312 41.667969 C 48.320312 42.273438 48.835938 42.703125 49.351562 42.703125 C 49.871094 42.703125 50.386719 42.1875 50.386719 41.667969 C 50.386719 32.53125 42.988281 25.117188 33.875 25.117188 C 33.273438 25.117188 32.84375 25.636719 32.84375 26.152344 C 32.84375 26.667969 33.359375 27.273438 33.960938 27.273438 Z M 33.960938 27.273438 " fill-opacity="1" fill-rule="nonzero"/></svg>