<svg xmlns="http://www.w3.org/2000/svg" xmlns:xlink="http://www.w3.org/1999/xlink" width="100" zoomAndPan="magnify" viewBox="0 0 75 74.999997" height="100" preserveAspectRatio="xMidYMid meet" version="1.0"><defs><clipPath id="6e3eceb20a"><path d="M 0.648438 0.648438 L 74.148438 0.648438 L 74.148438 74.148438 L 0.648438 74.148438 Z M 0.648438 0.648438 " clip-rule="nonzero"/></clipPath></defs><path fill="#e92267" d="M 54.363281 53.917969 C 53.046875 55.234375 50.863281 56.496094 49.582031 56.675781 C 48.175781 56.875 46.769531 56.898438 45.386719 56.75 C 42.304688 56.417969 39.25 55.226562 36.058594 53.109375 C 33.695312 51.542969 31.253906 49.472656 28.371094 46.589844 C 27.824219 46.042969 27.257812 45.453125 26.679688 44.828125 C 22.730469 40.5625 16.359375 32.375 18.074219 25.449219 C 18.417969 24.0625 19.074219 22.753906 20.046875 21.554688 C 20.320312 21.207031 20.632812 20.859375 20.96875 20.523438 L 23.449219 18.015625 L 28.210938 22.777344 C 28.695312 23.257812 28.957031 23.902344 28.957031 24.589844 C 28.957031 25.28125 28.691406 25.925781 28.207031 26.40625 L 27.199219 27.417969 C 25.082031 29.535156 24.742188 32.867188 26.386719 35.34375 C 30.09375 40.917969 34.660156 45.386719 40.339844 49.007812 C 42.328125 50.273438 45.199219 49.953125 46.882812 48.273438 L 48.476562 46.675781 C 48.65625 46.496094 48.867188 46.339844 49.089844 46.222656 C 50.082031 45.703125 51.320312 45.886719 52.109375 46.675781 L 56.859375 51.425781 Z M 59.714844 49.367188 L 54.566406 44.222656 C 52.710938 42.371094 49.796875 41.925781 47.46875 43.152344 C 46.933594 43.4375 46.445312 43.796875 46.023438 44.222656 L 44.425781 45.816406 C 43.898438 46.34375 42.816406 46.46875 42.203125 46.078125 C 36.941406 42.726562 32.710938 38.585938 29.277344 33.421875 C 28.542969 32.316406 28.703125 30.824219 29.65625 29.871094 L 30.664062 28.863281 C 31.800781 27.726562 32.429688 26.210938 32.429688 24.59375 C 32.429688 22.976562 31.804688 21.460938 30.667969 20.320312 L 25.515625 15.171875 C 25.246094 14.902344 24.753906 14.558594 23.96875 14.464844 C 22.945312 14.335938 21.867188 14.714844 21.105469 15.476562 L 18.515625 18.066406 C 18.085938 18.5 17.683594 18.945312 17.335938 19.386719 C 16.054688 20.972656 15.167969 22.730469 14.703125 24.617188 C 12.707031 32.695312 18.730469 41.351562 24.128906 47.183594 C 24.734375 47.839844 25.335938 48.464844 25.917969 49.042969 C 28.96875 52.09375 31.582031 54.308594 34.140625 56 C 37.808594 58.433594 41.363281 59.808594 45.015625 60.203125 C 45.730469 60.277344 46.453125 60.316406 47.179688 60.316406 C 48.140625 60.316406 49.109375 60.25 50.070312 60.113281 C 52.371094 59.789062 55.207031 57.984375 56.816406 56.371094 L 59.410156 53.78125 C 60.167969 53.019531 60.550781 51.949219 60.421875 50.917969 C 60.34375 50.285156 60.109375 49.765625 59.714844 49.367188 " fill-opacity="1" fill-rule="nonzero"/><g clip-path="url(#6e3eceb20a)"><path fill="#e92267" d="M 37.378906 4.164062 C 19.0625 4.164062 4.164062 19.0625 4.164062 37.378906 C 4.164062 55.691406 19.0625 70.59375 37.378906 70.59375 C 55.691406 70.59375 70.59375 55.691406 70.59375 37.378906 C 70.59375 19.0625 55.691406 4.164062 37.378906 4.164062 Z M 37.378906 74.121094 C 17.117188 74.121094 0.636719 57.640625 0.636719 37.378906 C 0.636719 17.117188 17.117188 0.636719 37.378906 0.636719 C 57.640625 0.636719 74.121094 17.117188 74.121094 37.378906 C 74.121094 57.640625 57.640625 74.121094 37.378906 74.121094 " fill-opacity="1" fill-rule="nonzero"/></g></svg>